<svg width="110" height="54" viewBox="0 0 110 54" fill="none" xmlns="http://www.w3.org/2000/svg">
<path d="M40.7474 40.3085V53H38.68V47.3014H32.7118V53H30.6625V40.3085H32.7118V45.6295H38.68V40.3085H40.7474Z" fill="#C2B8CB"/>
<path d="M52.1664 43.0948V53H50.0991V50.8428C49.8475 51.5738 49.41 52.1431 48.7868 52.5505C48.1636 52.946 47.4386 53.1438 46.6117 53.1438C45.4612 53.1438 44.5384 52.7723 43.8433 52.0292C43.1482 51.2862 42.8006 50.2256 42.8006 48.8474V43.0948H44.85V48.6316C44.85 49.5305 45.0777 50.2256 45.5331 50.7169C45.9885 51.1963 46.6117 51.436 47.4026 51.436C48.2176 51.436 48.8707 51.1723 49.3621 50.645C49.8534 50.1177 50.0991 49.3507 50.0991 48.344V43.0948H52.1664Z" fill="#C2B8CB"/>
<path d="M58.3959 42.969C59.2947 42.969 60.0617 43.1907 60.6969 43.6341C61.3321 44.0776 61.7755 44.6648 62.0272 45.3959V39.6973H64.0945V53H62.0272V50.6989C61.7755 51.43 61.3321 52.0172 60.6969 52.4607C60.0617 52.9041 59.2947 53.1258 58.3959 53.1258C57.533 53.1258 56.76 52.9221 56.0769 52.5146C55.4058 52.1071 54.8785 51.5199 54.495 50.7529C54.1115 49.9859 53.9197 49.0811 53.9197 48.0384C53.9197 47.0078 54.1115 46.1089 54.495 45.3419C54.8785 44.5749 55.4058 43.9877 56.0769 43.5802C56.76 43.1727 57.533 42.969 58.3959 42.969ZM59.0251 44.7667C58.1143 44.7667 57.3832 45.0603 56.8319 45.6475C56.2926 46.2228 56.023 47.0197 56.023 48.0384C56.023 49.0571 56.2926 49.86 56.8319 50.4473C57.3832 51.0225 58.1143 51.3102 59.0251 51.3102C59.6003 51.3102 60.1157 51.1783 60.5711 50.9147C61.0265 50.639 61.386 50.2555 61.6497 49.7642C61.9133 49.2728 62.0451 48.6976 62.0451 48.0384C62.0451 47.3913 61.9133 46.822 61.6497 46.3306C61.386 45.8273 61.0265 45.4438 60.5711 45.1801C60.1157 44.9045 59.6003 44.7667 59.0251 44.7667Z" fill="#C2B8CB"/>
<path d="M70.3288 42.969C71.2277 42.969 71.9947 43.1907 72.6299 43.6341C73.265 44.0776 73.7085 44.6648 73.9601 45.3959V39.6973H76.0274V53H73.9601V50.6989C73.7085 51.43 73.265 52.0172 72.6299 52.4607C71.9947 52.9041 71.2277 53.1258 70.3288 53.1258C69.466 53.1258 68.693 52.9221 68.0099 52.5146C67.3387 52.1071 66.8114 51.5199 66.4279 50.7529C66.0444 49.9859 65.8527 49.0811 65.8527 48.0384C65.8527 47.0078 66.0444 46.1089 66.4279 45.3419C66.8114 44.5749 67.3387 43.9877 68.0099 43.5802C68.693 43.1727 69.466 42.969 70.3288 42.969ZM70.958 44.7667C70.0472 44.7667 69.3162 45.0603 68.7649 45.6475C68.2256 46.2228 67.9559 47.0197 67.9559 48.0384C67.9559 49.0571 68.2256 49.86 68.7649 50.4473C69.3162 51.0225 70.0472 51.3102 70.958 51.3102C71.5333 51.3102 72.0486 51.1783 72.504 50.9147C72.9594 50.639 73.319 50.2555 73.5826 49.7642C73.8463 49.2728 73.9781 48.6976 73.9781 48.0384C73.9781 47.3913 73.8463 46.822 73.5826 46.3306C73.319 45.8273 72.9594 45.4438 72.504 45.1801C72.0486 44.9045 71.5333 44.7667 70.958 44.7667Z" fill="#C2B8CB"/>
<path d="M80.3383 39.6973V53H78.289V39.6973H80.3383Z" fill="#C2B8CB"/>
<path fill-rule="evenodd" clip-rule="evenodd" d="M20.9082 7.00493L17.5474 6.07884C17.2492 5.99681 16.932 6.09549 16.7336 6.33206L8.54959 16.1042L6.02156 3.35645C5.96335 3.06281 5.74476 2.82861 5.45727 2.74896L1.99072 1.79315C1.42643 1.63741 0.898965 2.13315 1.01658 2.70616L5.39193 23.8196C5.57844 24.7124 6.70465 25.0072 7.3034 24.3201L21.2896 8.2734C21.6685 7.83948 21.463 7.15829 20.9082 7.00493Z" fill="white"/>
<path fill-rule="evenodd" clip-rule="evenodd" d="M91.6761 0.256615L88.2253 0.628002C87.9199 0.661014 87.6618 0.868519 87.5647 1.15856L83.5338 13.1632L76.5517 2.32341C76.3895 2.07346 76.1007 1.93552 75.8047 1.96853L72.258 2.35053C71.672 2.4142 71.3583 3.0709 71.6815 3.56255L83.4154 21.4304C83.9127 22.1885 85.0645 22.0517 85.3687 21.2005L92.4941 1.28825C92.6871 0.74944 92.2479 0.195306 91.6761 0.256615Z" fill="white"/>
<path fill-rule="evenodd" clip-rule="evenodd" d="M27.4381 12.1865C22.5364 11.5214 18.3969 14.6606 17.7756 19.1348L17.7697 19.1902L17.7673 19.1914C17.1508 23.6679 20.2641 27.7306 25.136 28.391C30.0389 29.0549 34.1796 25.918 34.7984 21.4426L34.8068 21.3849C35.4268 16.9095 32.3099 12.848 27.4381 12.1865ZM30.3973 20.8459L30.3901 20.9025L30.3913 20.9037C30.0711 23.1998 28.2755 24.938 25.7225 24.5925C23.2556 24.2588 21.8614 22.0264 22.1804 19.7303L22.1863 19.6737C22.5053 17.3788 24.3009 15.6382 26.8551 15.9837C29.3185 16.3187 30.7139 18.5499 30.3973 20.8459Z" fill="white"/>
<path fill-rule="evenodd" clip-rule="evenodd" d="M58.5561 24.4118L56.1543 22.8159C55.8097 22.5865 55.3469 22.6634 55.0906 22.9873C53.8503 24.5584 52.5636 25.6413 50.3454 26.0905C46.6235 26.8459 43.4156 24.2853 42.6571 20.5828L42.644 20.5213C41.8856 16.8187 43.901 13.2639 47.5621 12.5203C49.4868 12.1302 51.1921 12.5404 52.938 13.4531C53.3184 13.6529 53.7895 13.5216 54.0006 13.1504L55.5676 10.3889C55.7775 10.0165 55.6522 9.54127 55.2814 9.3273C53.0179 8.02455 50.4218 7.37908 46.6939 8.13567C40.024 9.48689 36.4023 15.4592 37.6616 21.5947L37.6747 21.6573C38.9483 27.8567 44.6988 31.798 51.0896 30.5012C54.9439 29.7198 57.094 27.9784 58.7755 25.5006C59.0176 25.1412 58.9186 24.653 58.5561 24.4118Z" fill="white"/>
<path fill-rule="evenodd" clip-rule="evenodd" d="M73.6421 12.3634C72.219 8.04423 67.6688 5.73966 63.0596 7.28713C58.4245 8.84411 56.134 13.5055 57.5571 17.8259L57.5772 17.8805C58.998 22.1985 63.5493 24.5042 68.1597 22.9568C72.7948 21.401 75.0829 16.7372 73.6622 12.418L73.6421 12.3634ZM67.0044 19.2628C64.6715 20.046 62.4531 18.6412 61.7226 16.427L61.7038 16.3699C60.9757 14.1545 61.7982 11.7905 64.2149 10.9787C66.5466 10.1967 68.7662 11.5991 69.4955 13.8157L69.5144 13.8728C70.2436 16.0882 69.4188 18.4522 67.0044 19.2628Z" fill="white"/>
<path fill-rule="evenodd" clip-rule="evenodd" d="M103.664 3.54711C99.0166 2.04164 94.4367 4.39982 93.0466 8.68572L93.0277 8.741V8.73982C91.6399 13.0245 93.9529 17.5563 98.5729 19.0547C103.221 20.5601 107.8 18.1996 109.19 13.9172L109.208 13.862C110.598 9.57606 108.285 5.04435 103.664 3.54711ZM105.015 12.5647L104.996 12.6211V12.6199C104.283 14.8182 102.23 16.2131 99.8096 15.4286C97.4707 14.6712 96.5078 12.2377 97.2205 10.0383L97.2394 9.98419C97.9522 7.78596 100.003 6.39105 102.426 7.17672C104.766 7.93298 105.727 10.3676 105.015 12.5647Z" fill="white"/>
</svg>
