<svg width="158" height="48" viewBox="0 0 158 48" fill="none"
    xmlns="http://www.w3.org/2000/svg">
    <path d="M151.179 37.2926C151.367 37.3659 151.442 37.4759 151.367 37.6593C151.292 37.916 151.179 38.1726 151.104 38.4293C150.392 40.4095 149.68 42.3529 148.968 44.3331C148.931 44.4431 148.893 44.5531 148.856 44.6631C148.781 44.8464 148.669 44.9564 148.481 44.9564C148.294 44.9564 148.181 44.8831 148.106 44.7364C147.582 43.9664 147.095 43.1963 146.57 42.4263C145.708 41.1062 144.846 39.8228 143.947 38.5027C143.909 38.4293 143.872 38.356 143.872 38.2827C143.909 38.1726 143.984 38.0626 144.134 38.0626C144.396 38.026 144.696 37.9893 144.958 37.9893C145.108 37.9893 145.221 37.9526 145.371 37.9526C145.521 37.916 145.633 37.9893 145.708 38.0993C146.083 38.6493 146.42 39.1994 146.795 39.7494C147.244 40.4461 147.694 41.1428 148.144 41.8396C148.144 41.8396 148.181 41.8762 148.181 41.9129C148.256 41.7296 148.331 41.5095 148.369 41.3262C148.781 40.1528 149.193 38.9427 149.568 37.7693C149.643 37.5859 149.718 37.5126 149.943 37.4759C150.28 37.4393 150.617 37.4026 150.955 37.3659C150.955 37.3659 150.954 37.3659 150.992 37.3659C151.067 37.2926 151.104 37.2926 151.179 37.2926Z" fill="white"/>
    <path d="M118.763 38.0626C118.801 37.9526 118.838 37.8793 118.988 37.8426C119.063 37.8426 119.101 37.8426 119.176 37.8426C119.55 37.9526 119.963 38.0626 120.337 38.1726C120.487 38.2093 120.562 38.2827 120.562 38.4293C120.712 39.1994 120.862 39.9328 121.012 40.7028C121.162 41.3995 121.274 42.0596 121.424 42.7563C121.424 42.793 121.424 42.793 121.424 42.8296C121.499 42.7196 121.612 42.6463 121.686 42.5363C122.548 41.5096 123.41 40.5195 124.272 39.4927C124.31 39.4561 124.31 39.4561 124.347 39.4194C124.422 39.3461 124.535 39.3094 124.647 39.3461C125.022 39.4561 125.434 39.5661 125.809 39.6761C126.034 39.7494 126.109 39.9694 125.959 40.1528C125.172 41.0329 124.422 41.8762 123.635 42.7563C122.736 43.7464 121.874 44.7364 120.974 45.7265C120.862 45.8365 120.712 45.9098 120.562 45.8732C120.375 45.8365 120.3 45.7265 120.262 45.5432C120.15 45.1031 120.075 44.6264 119.963 44.1864C119.85 43.5997 119.7 43.013 119.588 42.4263C119.438 41.6929 119.288 40.9228 119.101 40.1894C118.951 39.5294 118.838 38.8694 118.688 38.246V38.2093C118.763 38.1726 118.763 38.136 118.763 38.0626Z" fill="white"/>
    <path d="M135.702 48C134.128 47.9267 132.929 47.2299 132.18 45.8732C131.917 45.4332 131.805 44.9198 131.73 44.4431C131.58 43.4163 131.842 42.463 132.479 41.6196C132.929 40.9595 133.566 40.5561 134.316 40.2628C134.765 40.0794 135.215 40.0061 135.702 39.9694C136.377 39.9328 137.014 40.0061 137.613 40.2628C137.763 40.3361 137.876 40.4095 138.026 40.4828C138.213 40.5928 138.25 40.7395 138.138 40.9228C137.951 41.2162 137.801 41.5462 137.613 41.8396C137.501 42.0229 137.389 42.0596 137.201 41.9496C136.976 41.8396 136.751 41.7662 136.527 41.6929C135.964 41.5462 135.44 41.5462 134.915 41.7662C134.316 42.0229 133.903 42.4263 133.716 43.013C133.454 43.673 133.454 44.3331 133.753 44.9931C133.978 45.5065 134.353 45.9099 134.84 46.2032C135.215 46.3866 135.59 46.4599 136.002 46.4232C136.414 46.3866 136.789 46.2765 137.164 46.0565C137.464 45.8732 137.688 45.6532 137.876 45.3965C137.913 45.3231 137.988 45.2865 138.026 45.2498C138.138 45.1765 138.25 45.1765 138.363 45.2131C138.663 45.3965 138.962 45.5798 139.225 45.7999C139.375 45.8732 139.375 46.0565 139.3 46.2032C139.187 46.3499 139.075 46.4966 138.962 46.6432C138.4 47.2666 137.688 47.67 136.901 47.8533C136.489 47.9267 136.114 47.9633 135.702 48Z" fill="white"/>
    <path d="M130.868 44.2964C130.868 45.5065 130.081 46.6066 128.919 47.0099C128.469 47.1566 128.02 47.1933 127.57 47.1566C126.708 47.0833 125.996 46.7166 125.434 46.0932C125.097 45.7265 124.909 45.2865 124.834 44.7731C124.722 44.1131 124.797 43.4897 125.134 42.903C125.584 42.0963 126.258 41.6195 127.158 41.4729C128.02 41.2895 128.882 41.4362 129.631 41.9496C130.268 42.3529 130.68 42.9396 130.868 43.7097C130.83 43.8564 130.83 44.0764 130.868 44.2964ZM129.256 44.2964C129.256 44.2231 129.256 44.1131 129.219 44.0031C129.181 43.673 129.032 43.3797 128.769 43.123C128.507 42.903 128.207 42.793 127.87 42.7563C127.458 42.7196 127.083 42.8296 126.821 43.123C126.446 43.453 126.296 43.8931 126.333 44.3698C126.371 44.7731 126.483 45.1031 126.783 45.3965C127.233 45.8365 127.945 45.9465 128.469 45.6165C128.994 45.3598 129.219 44.8831 129.256 44.2964Z" fill="white"/>
    <path d="M141.698 45.3965C140.424 45.4331 139.3 44.5531 138.925 43.453C138.475 42.0963 139.037 40.7028 140.312 40.0061C140.761 39.7494 141.286 39.6394 141.811 39.6027C142.448 39.5661 143.01 39.7127 143.534 40.0428C144.097 40.3728 144.471 40.8862 144.696 41.4729C145.108 42.5363 144.809 43.7464 143.947 44.5531C143.422 45.0298 142.822 45.2865 142.148 45.3965C142.073 45.3965 141.998 45.4331 141.923 45.4331C141.848 45.3965 141.773 45.3965 141.698 45.3965ZM141.773 40.9595C141.661 40.9595 141.548 40.9962 141.398 41.0328C140.611 41.2162 140.312 41.8396 140.349 42.4263C140.349 42.793 140.499 43.0863 140.686 43.3797C141.024 43.8564 141.661 44.0764 142.185 43.9297C142.673 43.8197 143.047 43.5263 143.235 43.0496C143.385 42.6463 143.347 42.2429 143.16 41.8762C142.897 41.3262 142.485 40.9962 141.773 40.9595Z" fill="white"/>
    <path d="M154.552 44.0397C153.69 44.0397 152.941 43.7464 152.304 43.1597C151.891 42.793 151.592 42.3529 151.479 41.8029C151.404 41.5829 151.404 41.3262 151.442 41.0695C151.479 40.6662 151.554 40.2995 151.704 39.9328C152.116 39.016 152.828 38.466 153.84 38.2827C154.814 38.0993 155.714 38.356 156.463 38.9427C156.988 39.3461 157.325 39.8594 157.475 40.4828C157.663 41.3995 157.475 42.2063 156.913 42.9396C156.501 43.453 155.939 43.8197 155.264 43.9297C155.002 44.003 154.777 44.003 154.552 44.0397ZM152.978 41.1795C152.978 41.6195 153.128 41.9862 153.465 42.2796C153.915 42.683 154.59 42.793 155.114 42.4996C155.714 42.1696 155.976 41.6195 155.939 40.9962C155.901 40.3728 155.601 39.9328 155.002 39.7127C154.59 39.5661 154.177 39.5661 153.803 39.7861C153.24 40.1161 152.978 40.5928 152.978 41.1795Z" fill="white"/>
    <path d="M81.813 42.3896H81.0635V44.0397H80.3889V40.0061H81.813C82.7873 40.0061 83.2745 40.5561 83.2745 41.2162C83.2745 41.7662 82.8623 42.3896 81.813 42.3896ZM81.813 41.8762C82.3376 41.8762 82.5625 41.6196 82.5625 41.2162C82.5625 40.8128 82.3376 40.5561 81.813 40.5561H81.0635V41.8762H81.813Z" fill="white"/>
    <path d="M85.2232 44.0764C84.2863 44.0764 83.5743 43.4163 83.5743 42.4263C83.5743 41.4362 84.3238 40.7762 85.2232 40.7762C86.1601 40.7762 86.8721 41.4362 86.8721 42.4263C86.9471 43.453 86.1601 44.0764 85.2232 44.0764ZM85.2232 43.5264C85.7104 43.5264 86.235 43.1597 86.235 42.4629C86.235 41.7296 85.7479 41.3995 85.2607 41.3995C84.736 41.3995 84.2863 41.7296 84.2863 42.4629C84.2863 43.1597 84.736 43.5264 85.2232 43.5264Z" fill="white"/>
    <path d="M87.1344 40.8495H87.809L88.4835 43.4163L89.1956 40.8495H89.9076L90.5821 43.4163L91.2567 40.8495H91.9312L90.9194 44.0397H90.2074L89.5328 41.6929L88.8583 44.0397H88.1463L87.1344 40.8495Z" fill="white"/>
    <path d="M93.73 44.0764C92.7932 44.0764 92.1186 43.4163 92.1186 42.4263C92.1186 41.4362 92.7932 40.7762 93.73 40.7762C94.6669 40.7762 95.304 41.3995 95.304 42.3529C95.304 42.463 95.304 42.573 95.2665 42.683H92.7557C92.7932 43.1963 93.2054 43.5264 93.6926 43.5264C94.1048 43.5264 94.3296 43.343 94.4795 43.0863H95.1916C95.0417 43.6364 94.517 44.0764 93.73 44.0764ZM92.7932 42.1329H94.592C94.592 41.6562 94.1798 41.3262 93.6926 41.3262C93.2429 41.3262 92.8681 41.6562 92.7932 42.1329Z" fill="white"/>
    <path d="M96.5407 44.0397H95.8661V40.8495H96.5407V41.3262C96.7281 40.9962 97.0653 40.8128 97.515 40.8128V41.5095H97.3651C96.878 41.5095 96.5407 41.7296 96.5407 42.3896V44.0397Z" fill="white"/>
    <path d="M99.4637 44.0764C98.5269 44.0764 97.8523 43.4163 97.8523 42.4263C97.8523 41.4362 98.5269 40.7762 99.4637 40.7762C100.401 40.7762 101.038 41.3995 101.038 42.3529C101.038 42.463 101.038 42.573 101 42.683H98.4894C98.5269 43.1963 98.9391 43.5264 99.4263 43.5264C99.8385 43.5264 100.063 43.343 100.213 43.0863H100.925C100.775 43.6364 100.288 44.0764 99.4637 44.0764ZM98.5643 42.1329H100.363C100.363 41.6562 99.9509 41.3262 99.4637 41.3262C98.9766 41.3262 98.6018 41.6562 98.5643 42.1329Z" fill="white"/>
    <path d="M102.949 40.7762C103.361 40.7762 103.811 40.9595 104.073 41.2895V39.7494H104.748V44.0397H104.073V43.563C103.848 43.8564 103.474 44.1131 102.949 44.1131C102.087 44.1131 101.412 43.4163 101.412 42.4629C101.412 41.4362 102.087 40.7762 102.949 40.7762ZM103.099 41.3629C102.612 41.3629 102.124 41.7296 102.124 42.4263C102.124 43.123 102.612 43.5264 103.099 43.5264C103.623 43.5264 104.073 43.123 104.073 42.4629C104.073 41.7662 103.586 41.3629 103.099 41.3629Z" fill="white"/>
    <path d="M108.833 40.7762C109.694 40.7762 110.369 41.4362 110.369 42.4263C110.369 43.4163 109.694 44.0764 108.833 44.0764C108.308 44.0764 107.896 43.8564 107.708 43.563V44.0397H107.034V39.7494H107.708V41.3262C107.896 41.0328 108.308 40.7762 108.833 40.7762ZM108.683 41.3629C108.195 41.3629 107.708 41.7662 107.708 42.4263C107.708 43.123 108.195 43.4897 108.683 43.4897C109.207 43.4897 109.694 43.0863 109.694 42.3896C109.657 41.7296 109.207 41.3629 108.683 41.3629Z" fill="white"/>
    <path d="M113.18 40.8495H113.892L111.905 45.5432H111.193L111.868 44.0031L110.594 40.8495H111.343L112.28 43.2697L113.18 40.8495Z" fill="white"/>
    <path d="M113.854 0H109.732V32.8923H113.854V0Z" fill="white"/>
    <path d="M48.8349 32.8923H44.7126V29.2987C43.1387 31.8289 40.0657 33.259 36.7679 33.259C31.0342 33.259 26.5372 29.7754 26.5372 22.8082V8.54393H30.622V22.2582C30.622 27.2086 33.3951 29.7387 37.5549 29.7387C41.827 29.7387 44.6752 27.1719 44.6752 21.9282V8.54393H48.7974V32.8923H48.8349Z" fill="white"/>
    <path d="M57.3792 15.8044C58.1662 14.4477 59.2155 13.4209 60.5271 12.7242C61.8387 12.0275 63.2253 11.6975 64.6868 11.6975C66.1858 11.6975 67.535 12.0275 68.7716 12.6875C70.0083 13.3476 71.0201 14.3743 71.7322 15.7311C72.4817 17.0879 72.8564 18.7746 72.8564 20.7548C72.8564 22.6982 72.4817 24.385 71.7322 25.7418C70.9827 27.0985 69.9708 28.1253 68.6967 28.7853C67.4225 29.4454 66.0734 29.7754 64.5369 29.7754C63.0379 29.7754 61.6888 29.4454 60.4147 28.7853C59.1405 28.1253 58.1287 27.0985 57.3417 25.7418C56.5548 24.385 56.1425 22.7349 56.1425 20.7548C56.18 18.8113 56.5922 17.1612 57.3792 15.8044ZM53.6317 27.3919C54.7185 29.2987 56.2549 30.7288 58.1662 31.7555C60.0774 32.7823 62.2135 33.2956 64.5744 33.2956C66.9354 33.2956 69.0714 32.7823 70.9827 31.7555C71.7322 31.3522 72.4067 30.8755 73.0438 30.3621V32.929H77.1661V0.0366714L73.1562 0.0733373L73.1187 11.1108C72.5191 10.5974 71.8446 10.1207 71.1326 9.71735C69.2588 8.69061 67.1227 8.17723 64.7993 8.17723C62.4383 8.17723 60.3023 8.69061 58.3536 9.71735C56.4049 10.7441 54.8684 12.2108 53.7441 14.1543C52.6199 16.0611 52.0577 18.2613 52.0577 20.7914C51.9453 23.2849 52.5074 25.4851 53.6317 27.3919Z" fill="white"/>
    <path d="M85.8228 15.8044C86.6098 14.4477 87.6591 13.4209 88.9707 12.7242C90.2823 12.0275 91.6689 11.6975 93.1305 11.6975C94.6295 11.6975 95.9786 12.0275 97.2152 12.6875C98.4519 13.3476 99.4637 14.3743 100.176 15.7311C100.925 17.0879 101.3 18.7746 101.3 20.7548C101.3 22.6982 100.925 24.385 100.176 25.7418C99.4263 27.0985 98.4144 28.1253 97.1403 28.7853C95.8661 29.4454 94.517 29.7754 92.9805 29.7754C91.4815 29.7754 90.1324 29.4454 88.8583 28.7853C87.5841 28.1253 86.5723 27.0985 85.7853 25.7418C84.9984 24.385 84.5861 22.7349 84.5861 20.7548C84.6236 18.8113 84.9984 17.1612 85.8228 15.8044ZM82.0378 27.3919C83.1246 29.2987 84.6611 30.7288 86.5723 31.7555C88.4835 32.7823 90.6196 33.2956 92.9805 33.2956C95.3415 33.2956 97.4776 32.7823 99.3888 31.7555C100.138 31.3522 100.813 30.8755 101.45 30.3621V32.929H105.572V0.0366714L101.562 0.0733373L101.525 11.1108C100.925 10.5974 100.251 10.1207 99.5387 9.71735C97.6649 8.69061 95.5288 8.17723 93.2054 8.17723C90.8445 8.17723 88.7084 8.69061 86.7597 9.71735C84.811 10.7441 83.2745 12.2108 82.1502 14.1543C81.026 16.0611 80.4639 18.2613 80.4639 20.7914C80.3889 23.2849 80.951 25.4851 82.0378 27.3919Z" fill="white"/>
    <path d="M18.0678 8.98396C19.6043 9.79068 20.8035 10.9641 21.6654 12.5409C22.5274 14.1176 22.9771 16.0611 22.9771 18.3346V32.8556H18.8548V18.9213C18.8548 16.4645 18.2177 14.5943 16.9811 13.2743C15.7069 11.9542 14.0205 11.3308 11.847 11.3308C9.63594 11.3308 7.87462 11.9908 6.60046 13.3476C5.28883 14.7044 4.65176 16.6478 4.65176 19.2513V32.8556H0.454544V0H4.65176V11.7342C5.47621 10.4874 6.60046 9.49733 8.06199 8.80062C9.52352 8.1039 11.1349 7.77387 12.9712 7.77387C14.845 7.81054 16.5688 8.21391 18.0678 8.98396Z" fill="white"/>
</svg>
